<?xml version="1.0" encoding="UTF-8"?> <svg xmlns="http://www.w3.org/2000/svg" width="770" height="226" viewBox="0 0 770 226" fill="none"> <path d="M103.43 100.918C95.529 100.909 87.7686 98.8256 80.9247 94.8772C74.0808 90.9288 68.3931 85.2532 64.4302 78.4176H64.3502L64.4202 78.3575C63.0941 76.0594 60.9095 74.3823 58.3468 73.6949C55.7841 73.0076 53.0533 73.3664 50.7552 74.6925C48.4571 76.0186 46.7799 78.2033 46.0926 80.766C45.4053 83.3287 45.7642 86.0594 47.0902 88.3575H47.2202L47.1102 88.4176C51.0519 95.2393 53.1313 102.977 53.1401 110.856C53.1489 118.734 51.0867 126.477 47.1602 133.307C45.9282 135.597 45.6362 138.276 46.3463 140.777C47.0563 143.279 48.7126 145.405 50.9638 146.705C53.2151 148.006 55.8844 148.379 58.4058 147.744C60.9271 147.11 63.1024 145.518 64.4702 143.307C68.4399 136.502 74.1203 130.854 80.9477 126.923C87.7751 122.992 95.512 120.914 103.39 120.898C106.042 120.898 108.586 119.844 110.461 117.969C112.337 116.093 113.39 113.55 113.39 110.898C113.39 108.245 112.337 105.702 110.461 103.827C108.586 101.951 106.042 100.898 103.39 100.898L103.43 100.918Z" fill="white"></path> <path d="M197.01 110.918H103.43C93.776 110.917 84.2919 108.376 75.9311 103.549C67.5703 98.7213 60.6274 91.7785 55.8003 83.4176L9.01025 2.4176C11.7345 0.834176 14.8293 0 17.9803 0C21.1312 0 24.226 0.834176 26.9503 2.4176L188.04 95.4176C190.768 96.9821 193.035 99.2395 194.61 101.961C196.185 104.683 197.013 107.773 197.01 110.918Z" fill="#26D496"></path> <path d="M197.01 110.918C197.027 114.081 196.202 117.191 194.621 119.931C193.039 122.67 190.758 124.94 188.01 126.508L26.9502 219.508C24.2207 221.086 21.1216 221.913 17.9685 221.905C14.8153 221.896 11.7209 221.051 9.00024 219.458L55.8002 138.458L55.8602 138.338C60.6974 130.008 67.6374 123.095 75.9857 118.29C84.334 113.484 93.7979 110.956 103.43 110.958L197.01 110.918Z" fill="#02004E"></path> <path d="M63.1803 110.918C63.1811 120.528 60.6568 129.97 55.8603 138.298L55.8003 138.418L9.00029 219.418C6.25419 217.851 3.97369 215.583 2.39229 212.845C0.810893 210.108 -0.0146208 206.999 0.000279632 203.838V17.9375C-0.0174348 14.7741 0.806792 11.663 2.38839 8.92334C3.96998 6.18367 6.25201 3.91412 9.00029 2.34753L55.7903 83.3475C60.6404 91.7256 63.1899 101.237 63.1803 110.918Z" fill="#005EFF"></path> <path d="M455.99 20.7976L456.45 29.9675H457.16C461.61 23.5075 469.78 18.6475 480.1 18.6475C500.32 18.4975 514.23 34.5575 514.23 56.6475C514.23 78.7375 500.32 94.4975 480.1 94.3475C469.78 94.3475 461.61 89.7675 457.16 83.3475H456.45V116.758H437.24V20.8475L455.99 20.7976ZM475.52 76.2775C486.84 76.2775 494.73 67.9575 494.73 56.6375C494.73 45.3175 486.84 36.9975 475.52 36.9975C464.2 36.9975 456.45 45.3075 456.45 56.6375C456.45 67.9675 464.34 76.2775 475.52 76.2775ZM469.88 129.567L470.33 138.748H471.05C475.5 132.288 483.67 127.418 493.99 127.418C514.2 127.268 528.11 143.328 528.11 165.418C528.11 187.508 514.2 203.267 493.99 203.117C483.67 203.117 475.5 198.547 471.05 192.117H470.33V225.518H451.12V129.607L469.88 129.567ZM489.4 185.048C500.72 185.048 508.61 176.738 508.61 165.408C508.61 154.078 500.72 145.768 489.4 145.768C478.08 145.768 470.33 154.088 470.33 165.408C470.33 176.728 478.22 185.048 489.4 185.048ZM337.94 92.1874H318.59V39.2875H286.71V92.1874H267.35V20.7976H337.94V92.1874ZM421.37 75.1874C415.25 87.5474 402.54 94.3475 387.74 94.3475C363.65 94.3475 350.6 76.5775 350.6 56.4975C350.6 35.2875 365.94 18.6575 387.88 18.6575C411.67 18.6575 426.88 37.7175 424.29 62.9475H370.38C371.53 70.2575 377.84 76.4275 387.74 76.8575C394.33 77.1475 400.56 73.9875 403.36 69.5476L421.36 75.1874H421.37ZM370.52 48.8275H404.64C402.49 40.8275 396.83 35.9975 387.73 35.9975C378.63 35.9975 372.54 41.1174 370.53 48.8174L370.52 48.8275ZM732.52 68.6874L719.6 92.1975H697.42L712.93 66.0975C705.04 62.0975 700.59 53.9175 700.59 45.0275C700.59 32.5575 709.77 20.8074 725.68 20.8074H769.58L769.14 92.1975H748.89L749.34 68.6874H732.57H732.52ZM749.34 54.0574V38.2976H728.84C722.96 38.2976 719.95 41.9975 719.95 46.1675C719.95 50.4975 722.95 54.0574 728.84 54.0574H749.34ZM364.84 165.268C364.84 144.058 379.9 127.428 403.27 127.428C426.64 127.428 441.71 144.048 441.71 165.258C441.71 186.628 426.51 203.107 403.29 203.107C380.07 203.107 364.84 186.628 364.84 165.258V165.268ZM422.33 165.347C422.33 154.547 414.74 145.778 403.27 145.778C391.8 145.778 384.2 154.547 384.2 165.347C384.2 176.147 391.8 184.768 403.27 184.768C414.74 184.768 422.33 176.117 422.33 165.337V165.347ZM630.71 200.957H611.33V151.357H610.62L591.98 200.957H577.07L558.57 151.497H557.86V200.957H538.53V129.567H569.18L584.81 172.437L600.29 129.567H630.71V200.957ZM588.71 55.3475C592.297 56.3771 595.439 58.5694 597.644 61.5797C599.849 64.5899 600.991 68.2475 600.89 71.9775C600.89 81.9775 593.28 92.1874 578.66 92.1874H526.45V20.7976H575.93C590.84 20.7976 597.72 30.2475 597.72 39.8675C597.803 42.952 597 45.9956 595.404 48.6368C593.809 51.278 591.489 53.4058 588.72 54.7675H588.35V55.3475H588.71ZM545.82 36.7075V48.8174H571.21C576.38 48.8174 578.39 45.7175 578.39 42.6175C578.39 39.5175 576.39 36.7075 571.21 36.7075H545.82ZM573.82 76.2775C579.27 76.2775 581.41 72.8175 581.41 69.3775C581.41 65.9375 579.27 62.9374 573.82 62.9374H545.82V76.2775H573.82ZM318.59 129.118V116.687H299.23V129.118C277.01 129.118 260.96 144.028 260.96 165.388C260.96 186.318 276.96 201.227 299.23 201.227V225.457H318.59V201.227C340.52 201.227 357.01 186.318 357.01 165.388C357.01 144.048 340.71 129.118 318.59 129.118ZM299.23 184.288H299.09C286.46 184.288 280.31 176.287 280.31 165.467C280.31 154.177 286.46 146.197 299.09 146.197H299.23V184.288ZM318.87 184.288H318.71V146.217H318.85C331.48 146.217 337.63 154.217 337.63 165.487C337.65 176.327 331.5 184.307 318.87 184.307V184.288ZM698.76 129.548L698.3 138.727H697.59C693.14 132.267 684.97 127.398 674.65 127.398C654.43 127.248 640.53 143.308 640.53 165.398C640.53 187.488 654.43 203.247 674.65 203.097C684.97 203.097 693.14 198.527 697.59 192.097H698.3L698.76 200.977H717.51V129.587L698.76 129.548ZM679.24 185.028C667.91 185.028 660.03 176.718 660.03 165.388C660.03 154.058 667.91 145.748 679.24 145.748C690.57 145.748 698.3 154.068 698.3 165.388C698.3 176.708 690.42 185.048 679.24 185.048V185.028ZM667.29 20.7775L666.84 29.9475H666.12C661.68 23.4875 653.51 18.6275 643.19 18.6275C622.97 18.4775 609.06 34.5375 609.06 56.6275C609.06 78.7175 622.97 94.4775 643.19 94.3275C653.51 94.3275 661.68 89.7475 666.12 83.3275H666.84L667.29 92.2175H686.05V20.8275L667.29 20.7775ZM647.77 76.2575C636.45 76.2575 628.56 67.9375 628.56 56.6175C628.56 45.2975 636.45 36.9775 647.77 36.9775C659.09 36.9775 666.84 45.2875 666.84 56.6175C666.84 67.9475 658.95 76.2775 647.77 76.2775V76.2575Z" fill="#02004E"></path> </svg> 